# xmcd CD database file
#
# Track frame offsets:
#	182
#	13017
#	25282
#	38977
#	52697
#	65090
#	79247
#	91255
#	104517
#	117685
#	131170
#	145075
#	158040
#	171212
#	183765
#	195172
#	206920
#
# Disc length: 2936 seconds
#
# Revision: 0
# Processed by: cddbd v1.5.2PL0 Copyright (c) Steve Scherf et al.
# Submitted via: CDex 1.70beta2
#
DISCID=ea0b7611
DTITLE=Jazz Tribune No. 62 - "Chicago Blues" (1935-42) CD 2
DYEAR=1995
DGENRE=Blues
TTITLE0=Hudson Whittaker - Georgia, Georgia Blues
TTITLE1=Hudson Whittaker - No Baby No
TTITLE2=Hudson Whittaker - You'd Better Be Ready To Go
TTITLE3=Hudson Whittaker - Gypsy Lady Blues (unissued)
TTITLE4=Hudson Whittaker - Gin Head Woman
TTITLE5=Robert Brown - When My Love Change
TTITLE6=Robert Brown - River Hip Mama
TTITLE7=Jack Dupree and William L.C. Broonzy - Good Old Cabbage Greens
TTITLE8=Charles Segar and Robert Brown - Stop And Fix It
TTITLE9=Joe McCoy - Let's Try It Again
TTITLE10=Harmon Ray - Come Over And See Me
TTITLE11=Joe McCoy - Sleeping By Myself
TTITLE12=Joe McCoy - It Ain't No Lie
TTITLE13=Johnny Temple - Big Woman Blues
TTITLE14=Johnny Temple - Jinks Lee Blues
TTITLE15=Johnny Temple - Sundown Blues
TTITLE16=Johnny Temple - What Is That She Got?
EXTD=YEAR: 1995
EXTT0=
EXTT1=
EXTT2=
EXTT3=
EXTT4=
EXTT5=
EXTT6=
EXTT7=
EXTT8=
EXTT9=
EXTT10=
EXTT11=
EXTT12=
EXTT13=
EXTT14=
EXTT15=
EXTT16=
PLAYORDER=
